<svg id="Calque_1" data-name="Calque 1" xmlns="http://www.w3.org/2000/svg" viewBox="0 0 500 500"><defs><style>.cls-1{fill:#fff;}</style></defs><title>Plan de travail 1</title><path class="cls-1" d="M249.65.79C111.85.79.15,112.49.15,250.29S111.85,499.8,249.65,499.8,499.16,388.1,499.16,250.29,387.46.79,249.65.79Zm0,441.18c-47.23,0-91.15,25.49-127.75,1.21A231.11,231.11,0,0,1,18.32,250.29C18.32,122.53,121.89,19,249.65,19S481,122.53,481,250.29A231.08,231.08,0,0,1,377.31,443.23C340.71,467.48,296.84,442,249.65,442Z"/><path class="cls-1" d="M331.45,141.24a62.21,62.21,0,0,0-9,.64,90.18,90.18,0,0,0-145.65,0,63.61,63.61,0,1,0-9,126.59,62.85,62.85,0,0,0,22.56-4.17,89.7,89.7,0,0,0,118.47,0,62.89,62.89,0,0,0,22.56,4.17,63.62,63.62,0,0,0,0-127.23Zm-99.4,236.28a18.18,18.18,0,1,0,36.35,0c0-10-18.18-36.35-18.18-36.35S232.05,367.48,232.05,377.52Zm72.13-18.17a18.18,18.18,0,0,0,36.35,0c0-10.05-18.17-36.35-18.17-36.35S304.18,349.3,304.18,359.35ZM158.77,323a18.18,18.18,0,0,0,36.36,0c0-10.05-18.18-36.36-18.18-36.36S158.77,313,158.77,323Z"/></svg>