<?xml version="1.0" encoding="utf-8"?>
<!-- Generator: Adobe Illustrator 23.1.1, SVG Export Plug-In . SVG Version: 6.00 Build 0)  -->
<svg version="1.1" id="Calque_1" xmlns="http://www.w3.org/2000/svg" xmlns:xlink="http://www.w3.org/1999/xlink" x="0px" y="0px"
	 viewBox="0 0 500 500" style="enable-background:new 0 0 500 500;" xml:space="preserve">
<style type="text/css">
	.st0{fill:#3283FF;}
</style>
<title>Plan de travail 1</title>
<path class="st0" d="M249.6,0.8C111.8,0.8,0.2,112.5,0.2,250.3s111.7,249.5,249.5,249.5s249.5-111.7,249.5-249.5
	S387.5,0.8,249.6,0.8z M249.6,442c-47.2,0-91.1,25.5-127.8,1.2C57.2,400.4,18.3,327.9,18.3,250.3C18.3,122.5,121.9,19,249.6,19
	S481,122.5,481,250.3c0,77.6-38.9,150.1-103.7,192.9C340.7,467.5,296.8,442,249.6,442L249.6,442z"/>
<path class="st0" d="M331.5,141.2c-3,0-6,0.2-9,0.6c-29.4-40.2-85.8-49-126-19.6c-7.5,5.5-14.1,12.1-19.6,19.6
	c-34.8-4.9-67,19.3-71.9,54s19.3,67,54,71.9c2.9,0.4,5.9,0.6,8.9,0.6c7.7,0,15.4-1.4,22.6-4.2c33.9,29.8,84.6,29.8,118.5,0
	c7.2,2.8,14.8,4.2,22.6,4.2c35.1-0.4,63.3-29.3,62.8-64.4C393.8,169.5,365.9,141.7,331.5,141.2L331.5,141.2z M232.1,377.5
	c-0.2,10,7.7,18.4,17.7,18.6c10,0.2,18.4-7.7,18.6-17.7c0-0.3,0-0.6,0-0.9c0-10-18.2-36.4-18.2-36.4S232.1,367.5,232.1,377.5
	L232.1,377.5z M304.2,359.4c0.2,10,8.6,18,18.6,17.7c9.7-0.2,17.5-8,17.7-17.7c0-10-18.2-36.4-18.2-36.4S304.2,349.3,304.2,359.4
	L304.2,359.4z M158.8,323c0,10,8.1,18.2,18.2,18.2c10,0,18.2-8.1,18.2-18.2c0-10-18.2-36.4-18.2-36.4S158.8,313,158.8,323z"/>
</svg>
